<svg width="31" height="42" viewBox="0 0 31 42" fill="none" xmlns="http://www.w3.org/2000/svg">
<path d="M12.546 2.19404C12.53 2.13789 12.5208 2.03821 12.5208 1.96487C12.5208 1.41602 12.9654 0.971436 13.5142 0.971436C13.748 0.971436 13.9107 1.05852 13.9749 1.08373C15.1894 1.5581 23.5288 5.4906 21.6004 16.8607C24.4008 15.1729 23.3993 11.8958 24.316 11.8958C24.6598 11.8958 24.8007 12.0241 25.0115 12.3255C28.0755 16.698 30.3958 21.9127 30.3958 26.7916C30.3958 35.0187 23.727 41.6875 15.5 41.6875C6.45361 41.6875 0.604126 34.0677 0.604126 26.7916C0.604126 14.6894 14.8675 12.455 12.546 2.19404Z" fill="url(#paint0_linear)"/>
<path d="M15.1173 15.5488C15.1173 15.5488 14.864 15.3334 14.4974 15.3334C13.9439 15.3334 13.4948 15.7825 13.4948 16.336C14.4974 22.3516 7.47913 24.3568 7.47913 31.375C7.47913 35.8048 11.0702 39.3959 15.5 39.3959C19.9298 39.3959 23.5208 35.8048 23.5208 31.375C23.5208 25.6596 18.4872 18.0318 15.1173 15.5488Z" fill="url(#paint1_linear)"/>
<defs>
<linearGradient id="paint0_linear" x1="10.8651" y1="1.22237" x2="18.1285" y2="41.0997" gradientUnits="userSpaceOnUse">
<stop stop-color="#F44F5A"/>
<stop offset="0.443" stop-color="#EE3D4A"/>
<stop offset="1" stop-color="#E52030"/>
</linearGradient>
<linearGradient id="paint1_linear" x1="12.224" y1="13.3511" x2="18.3726" y2="46.9286" gradientUnits="userSpaceOnUse">
<stop stop-color="#FED100"/>
<stop offset="1" stop-color="#E36001"/>
</linearGradient>
</defs>
</svg>
