<svg width="50" height="50" viewBox="0 0 50 50" fill="none" xmlns="http://www.w3.org/2000/svg">
<g filter="url(#filter0_d)">
<path d="M25 18.3334C25.4213 18.3334 25.832 18.3641 26.236 18.4107C26.2973 18.1801 26.3333 17.9294 26.3333 17.6667C26.3333 16.5627 25.736 15.6667 25 15.6667C24.264 15.6667 23.6666 16.5627 23.6666 17.6667C23.6666 17.9294 23.7026 18.1801 23.764 18.4107C24.168 18.3641 24.5786 18.3334 25 18.3334Z" fill="#EB5757"/>
<path opacity="0.35" d="M25 17.4106C17.636 17.4106 13 24.7133 13 32.0773H36.8653H37C37 24.7133 32.364 17.4106 25 17.4106Z" fill="#EB5757"/>
<path d="M37.6667 35.0774H12.3334C11.2294 35.0774 10.3334 34.1814 10.3334 33.0774C10.3334 31.9734 11.2294 31.0774 12.3334 31.0774H37.6667C38.7707 31.0774 39.6667 31.9734 39.6667 33.0774C39.6667 34.1814 38.7707 35.0774 37.6667 35.0774Z" fill="#EB5757"/>
</g>
<defs>
<filter id="filter0_d" x="7" y="9" width="36" height="38" filterUnits="userSpaceOnUse" color-interpolation-filters="sRGB">
<feFlood flood-opacity="0" result="BackgroundImageFix"/>
<feColorMatrix in="SourceAlpha" type="matrix" values="0 0 0 0 0 0 0 0 0 0 0 0 0 0 0 0 0 0 127 0"/>
<feOffset dy="4"/>
<feGaussianBlur stdDeviation="1"/>
<feColorMatrix type="matrix" values="0 0 0 0 0.921569 0 0 0 0 0.341176 0 0 0 0 0.341176 0 0 0 0.12 0"/>
<feBlend mode="normal" in2="BackgroundImageFix" result="effect1_dropShadow"/>
<feBlend mode="normal" in="SourceGraphic" in2="effect1_dropShadow" result="shape"/>
</filter>
</defs>
</svg>
